<svg xmlns="http://www.w3.org/2000/svg" width="16" height="15" viewBox="0 0 16 15"><g><g><path fill="#807d77" d="M8.585 12.275c0-1.23-1.361-1.916-2.18-2.54-.12-.018-.234-.018-.356-.018-1.538 0-4.28.458-4.28 2.285 0 1.687 2.427 2.338 4.052 2.338 1.063 0 2.764-.527 2.764-2.065zM7.338 4.317c0-1.316-.71-3.715-2.153-3.715-1.472 0-2.192 1.09-2.192 2.23 0 1.353 1.124 3.206 2.907 3.206.977 0 1.438-.771 1.438-1.72zM6.278 0h3.561L8.33.66h-.618c1.012.586 1.474 1.734 1.474 2.849 0 2.085-2.253 2.24-2.253 3.549 0 1.322 2.956 1.845 2.956 4.461 0 1.01-.509 1.828-1.294 2.478C7.4 14.77 6.135 15 4.665 15 2.236 15 0 14.426 0 12.407c0-.413.148-.818.342-1.187.795-1.602 3.593-2.108 5.636-2.163-.235-.441-.456-.954-.456-1.528 0-.338.085-.563.157-.886a4.12 4.12 0 0 1-.696.055c-2.18 0-3.795-1.306-3.795-2.871C1.188 2.013 2.566.5 4.612.167 5.298.058 5.828 0 6.278 0zM16 2.335v1.273h-2.366v1.994h-1.27V3.608h-2.41V2.335h2.41V0h1.27v2.335z"/></g></g></svg>