<svg xmlns="http://www.w3.org/2000/svg" width="16" height="14" viewBox="0 0 16 14"><g><g><path fill="#807d77" d="M15.5 2.044c-.55.254-1.15.436-1.769.507A3.241 3.241 0 0 0 15.083.744a5.83 5.83 0 0 1-1.951.792A2.98 2.98 0 0 0 10.885.5C9.181.5 7.811 1.973 7.811 3.78c0 .254.028.508.076.752C5.336 4.39 3.06 3.09 1.547 1.099a3.423 3.423 0 0 0-.419 1.656c0 1.137.543 2.143 1.37 2.732A2.952 2.952 0 0 1 1.11 5.07v.04c0 1.595 1.057 2.916 2.466 3.22a3.06 3.06 0 0 1-.81.112c-.2 0-.39-.02-.58-.05.39 1.3 1.523 2.244 2.875 2.275a5.918 5.918 0 0 1-3.818 1.401 5.98 5.98 0 0 1-.742-.04A8.298 8.298 0 0 0 5.221 13.5c5.655 0 8.748-4.997 8.748-9.333 0-.143 0-.285-.01-.427a6.82 6.82 0 0 0 1.54-1.696z"/></g></g></svg>