<svg xmlns="http://www.w3.org/2000/svg" width="13" height="14" viewBox="0 0 13 14"><g><g><path fill="#807d77" d="M1.772 10.182C.793 10.182 0 11.037 0 12.09S.793 14 1.772 14c.978 0 1.771-.855 1.771-1.91 0-1.053-.793-1.908-1.771-1.908zM5.85 7.696C4.457 6.185 2.602 5.26.637 5.091H.59a.544.544 0 0 0-.396.169.626.626 0 0 0-.194.467V7.07c0 .328.23.596.535.626 2.814.288 5.047 2.695 5.315 5.727.028.328.277.577.581.577h1.246c.166 0 .323-.07.434-.209a.674.674 0 0 0 .156-.477C8.11 11.196 7.252 9.197 5.85 7.696zm3.322-3.58C6.883 1.641 3.848.18.618 0H.59a.552.552 0 0 0-.406.18A.631.631 0 0 0 0 .635v1.422c0 .328.24.607.554.627 5.36.338 9.633 4.941 9.937 10.718.019.338.277.597.59.597h1.32c.166 0 .314-.07.424-.199a.638.638 0 0 0 .174-.467c-.174-3.48-1.53-6.752-3.827-9.218z"/></g></g></svg>