<svg xmlns="http://www.w3.org/2000/svg" width="488" height="388" viewBox="0 0 488 388"><defs><linearGradient id="t7npa" x1="244.48" x2="244.43" y1="388" y2="333.05" gradientUnits="userSpaceOnUse"><stop offset="0" stop-color="#9e9a95"/><stop offset=".05" stop-color="#9e9a95"/><stop offset=".15" stop-color="#979491"/><stop offset=".25" stop-color="#a39f9a"/><stop offset=".4" stop-color="#a29d98"/><stop offset=".5" stop-color="#656565"/><stop offset=".6" stop-color="#989490"/><stop offset=".85" stop-color="#e4e4e4"/><stop offset=".9" stop-color="#c2bdb8"/><stop offset="1" stop-color="#595156"/></linearGradient><linearGradient id="t7npb" x1="0" x2="488" y1="311.25" y2="312.04" gradientUnits="userSpaceOnUse"><stop offset="0" stop-color="#837b7b"/><stop offset=".25" stop-color="#a9a39f"/><stop offset=".5" stop-color="#bfbbb7"/><stop offset=".75" stop-color="#cccbc6"/><stop offset="1" stop-color="#dcded9"/></linearGradient></defs><g><g><g><path fill="#666" d="M193.658 333.045s-.385 21.236-5.713 27.41c-5.328 6.172-19.423 20.556-19.423 20.556s-.56 3.848 1.143 5.71c1.702 1.862 6.855 1.142 6.855 1.142h135.872s5.153.72 6.855-1.142c1.702-1.862 1.143-5.71 1.143-5.71s-14.095-14.384-19.423-20.557c-5.328-6.173-5.713-27.409-5.713-27.409z"/><path fill="url(#t7npa)" d="M193.658 333.045s-.385 21.236-5.713 27.41c-5.328 6.172-19.423 20.556-19.423 20.556s-.56 3.848 1.143 5.71c1.702 1.862 6.855 1.142 6.855 1.142h135.872s5.153.72 6.855-1.142c1.702-1.862 1.143-5.71 1.143-5.71s-14.095-14.384-19.423-20.557c-5.328-6.173-5.713-27.409-5.713-27.409z"/></g><g><path fill="#666" d="M0 321.027v-30.994h488v30.994c0 6.753-5.499 12.227-12.282 12.227H12.282C5.5 333.254 0 327.78 0 321.027z"/><path fill="url(#t7npb)" d="M0 321.027v-30.994h488v30.994c0 6.753-5.499 12.227-12.282 12.227H12.282C5.5 333.254 0 327.78 0 321.027z"/></g><g><path d="M468 270H20V20h448zM0 290h488V11.944C488 5.348 482.501 0 475.718 0H12.282C5.5 0 0 5.348 0 11.944z"/></g><g><path fill="#353535" d="M20 20h448v250H20z"/></g><g><g><text fill="#fff" style="line-height:21.6px" dominant-baseline="text-before-edge" font-family="'Georgia','Georgia'" font-size="18" font-style="none" font-weight="700" transform="translate(190 136)"><tspan style="font-kerning:normal">448 x 250px</tspan></text></g></g></g></g></svg>